<svg xmlns="http://www.w3.org/2000/svg" viewBox="0 0 500 500"><defs><style>.cls-1{fill:#f66;}.cls-2{fill:#fff;}</style></defs><title>logo</title><g id="circle"><circle class="cls-1" cx="250" cy="250" r="250"/></g><g id="logo"><text/><path class="cls-2" d="M240,244.38H90.44V94.83H240ZM159.22,115.46H132.83V225h72.33V204.64H159.22Z"/><path class="cls-2" d="M402.33,244.38H252.78V94.83H402.33Zm-28.79-77.63q-.07-15.78-6.13-28a44.54,44.54,0,0,0-17-18.83,50.08,50.08,0,0,0-49.89.07,43.71,43.71,0,0,0-16.92,19q-5.91,12.3-5.91,28.39v6.16Q278,189,284.1,201A43.74,43.74,0,0,0,301,219.35a47.63,47.63,0,0,0,24.81,6.43,47,47,0,0,0,24.93-6.65,43.9,43.9,0,0,0,16.88-19q5.94-12.33,5.94-28.35Zm-26.84,5.49q-.07,15.94-5.49,24.44a17.25,17.25,0,0,1-15.42,8.5q-10.53,0-15.86-8.65t-5.34-24.74l.07-8q1.14-29.79,21-29.78a17.5,17.5,0,0,1,15.61,8.46q5.44,8.46,5.45,24.78Z"/><path class="cls-2" d="M240,405.17H90.44V255.62H240Zm-29.54-80.95H165.72v18.12h18.35v17q-5,4.59-15.34,4.58-12,0-17.64-8.23t-5.6-24.63v-6.61q.07-15.65,5.49-24.07A17.23,17.23,0,0,1,166.32,292c5.51,0,9.78,1.31,12.78,3.91s5,7,5.87,13.09h25.41q-1.87-18.58-13.19-27.94t-31.77-9.36a46.31,46.31,0,0,0-24.63,6.5,42.46,42.46,0,0,0-16.35,18.58q-5.72,12.06-5.72,28.23l.08,9.48q.9,23.46,13.76,36.62t34.36,13.16a76.79,76.79,0,0,0,25.72-4.14q11.73-4.14,17.82-10.9Z"/><path class="cls-2" d="M402.33,405.17H252.78V255.62H402.33Zm-28.79-80.64q-.07-15.79-6.13-28a44.54,44.54,0,0,0-17-18.83,50.08,50.08,0,0,0-49.89.07,43.71,43.71,0,0,0-16.92,19q-5.91,12.28-5.91,28.38v6.17q.3,15.49,6.36,27.45A43.74,43.74,0,0,0,301,377.13a47.63,47.63,0,0,0,24.81,6.43,47,47,0,0,0,24.93-6.65,43.9,43.9,0,0,0,16.88-19q5.94-12.33,5.94-28.35ZM346.7,330q-.07,15.94-5.49,24.44a17.25,17.25,0,0,1-15.42,8.5q-10.53,0-15.86-8.65t-5.34-24.74l.07-8.05q1.14-29.77,21-29.77a17.5,17.5,0,0,1,15.61,8.46q5.44,8.46,5.45,24.77Z"/></g></svg>